<svg xmlns="http://www.w3.org/2000/svg" xmlns:xlink="http://www.w3.org/1999/xlink" viewBox="0 0 174.24 137.76">
  <defs>
    <mask id="mask" x="0" y="0" width="174.24" height="137.76" maskUnits="userSpaceOnUse">
      <g id="visorOpacity_Mask" data-name="visorOpacity Mask">
        <image id="visorOpacity_Mask-2" data-name="visorOpacity Mask" width="726" height="574" transform="scale(0.24)" xlink:href="cap-exercise1.png"/>
      </g>
    </mask>
    <mask id="mask-2" x="0" y="0" width="174.24" height="137.76" maskUnits="userSpaceOnUse">
      <g id="crownOpacity_Mask" data-name="crownOpacity Mask">
        <image id="crownOpacity_Mask-2" data-name="crownOpacity Mask" width="726" height="574" transform="scale(0.24)" xlink:href="cap-exercise2.png"/>
      </g>
    </mask>
  </defs>
  <g mask="url(#mask)">
    <g id="visor" data-field="visor" style="isolation: isolate">
      <path d="M40.56,85.2a114.37,114.37,0,0,1,28.56,2.88c4,.94,8.11.2,12,1.2C88,91,95.93,92.67,102.48,94.8c2.47.8,4.91,1.37,7.2,1.92l3.6.24c.67.21,1.11,1,1.68,1.2,1.88.82,3.79.56,5.76,1.2,1.1.36,2.49,1.15,3.6,1.44l5,.24c1.85.46,3.92,1.74,6.48,1.2a28.26,28.26,0,0,1,9.84,0,2.66,2.66,0,0,0,.48.72c-1.38,3.36-3.77,4.52-6.24,6.72-2.65,2.36-4.46,5.64-7.44,7.68-1.12.77-2.59,1-3.6,1.92-.22.2-.26.76-.48,1-2,1.85-4.65,3-6.72,4.8-1.13,1-2.3,3.15-3.6,3.84h-1a35,35,0,0,0-3.6,1.92c-.85.47-1.74,1.51-2.64,1.92a25.85,25.85,0,0,1-3.84,1.2h-1.92l-1,1a14.53,14.53,0,0,1-8.16.48H89.28c-2.4-.61-5.69-.78-8.16-1.68-1.68-.61-4.08-1.63-5.76-2.16l-2.4-.24c-.95-.41-2.32-1.32-3.36-1.68l-1.92-.24c-1.74-.77-4.52-2.53-6.24-3.12H59.52a27.09,27.09,0,0,1-3.84-1.2c-5.76-2.57-12.45-4.48-18.72-6.72-2.18-.78-5.14-.68-7.2-1.2h-9.6c-.57.17-1.28.79-1.92,1h-2.4c-4.72,1.21-9.13,2.27-12,5.28-1.3-.26-2.28-.62-2.4-2.16a1.52,1.52,0,0,1,.24-1.44c.89-2.47,7.5-7.22,9.6-9.36,8.24-8.4,17.2-16.08,25.2-24.72C37.38,85.65,39.86,85.66,40.56,85.2Z" fill="none" fill-rule="evenodd"/>
    </g>
  </g>
  <g mask="url(#mask-2)">
    <g id="crown" data-field="crown" style="isolation: isolate">
      <path d="M118.56,6.72c7.48-.17,17.24,3.82,22.32,6.48,4.3,2.25,8.42,3.62,12.24,6.24.46.32.77,1.07,1.2,1.44.72.62,1.7.8,2.4,1.44,6.47,5.92,10.11,13.12,13.44,22.32,1.15,3.18,1.34,7.34,2.16,10.56v6.24a31.71,31.71,0,0,1,0,13c-.62,2.44.48,4.6.48,7.2,0,7.46.23,15-1.92,20.16-4,2.35-8.84,1.92-14.4,1.92H148.8c-1.1-.29-2.76-1.11-3.84-1.44h-4.32c-.57-.14-1.41-.77-2.4-.48-.39.11-1.05.84-1.44,1-2.32.74-4.6-.59-5.76-1h-2.4c-1.43-.37-3-.49-4.8-1a42,42,0,0,1-4.32-1.2c-.48-.19-1-1-1.44-1.2h-3.36c-3.68-1-8-2.33-11.52-3.6l-4.32-.72c-5-1.38-11-2.52-16.32-3.84-2-.5-3.35,0-5.28-.48s-4.44-1-6.24-1.44c-2.64-.65-4.72.14-7.2-.48-1.9-.47-3.59-1.49-5.28-1.92H54.24C48.83,84.6,41.31,85.4,36,85.44a70,70,0,0,1,1.68-10.08C38,74,37.09,73.05,37.2,72a98.72,98.72,0,0,1,2.4-13.68l.72-4.8c1.24-4.45,2.55-9.89,4.32-14.16.27-.66,1.14-1.27,1.44-1.92,5.05-10.91,14.39-18.82,25.44-23.76,6-2.67,13.82-3.38,20.64-5h3.36c2.83-.7,7.34-.35,10.08-1.44a4.6,4.6,0,0,0,.24-1.44c-.44-.64-.16-1.71,0-2.4A11,11,0,0,1,108,1.92c2-.62,8.15.1,9.12.72.6.38.94,1.19,1.44,1.68Z" fill="none" fill-rule="evenodd"/>
    </g>
  </g>
  <g id="shadow_Image" data-name="shadow Image">
    <image id="shadow_Image-2" data-name="shadow Image" width="725" height="574" transform="scale(0.24)" xlink:href="cap-exercise3.png"/>
  </g>
</svg>
